<svg xmlns="http://www.w3.org/2000/svg" width="140" height="24" viewBox="0 0 140 24">
    <path fill="#9B9B9B" fill-rule="evenodd" d="M16.352 23.68l-1.44-4.192H6.208l-1.44 4.192H0l7.904-22.4h5.344l7.872 22.4h-4.768zm-8.96-7.648h6.368l-3.2-9.312-3.168 9.312zm29.312 2.592c.939-.939 1.408-2.219 1.408-3.84s-.464-2.89-1.392-3.808c-.928-.917-2.021-1.376-3.28-1.376s-2.352.464-3.28 1.392c-.928.928-1.392 2.203-1.392 3.824s.464 2.896 1.392 3.824c.928.928 2.021 1.392 3.28 1.392s2.347-.47 3.264-1.408zm-7.936-9.92c1.259-2.005 3.104-3.008 5.536-3.008 2.432 0 4.437.848 6.016 2.544 1.579 1.696 2.368 3.883 2.368 6.56 0 2.677-.79 4.87-2.368 6.576-1.579 1.707-3.568 2.56-5.968 2.56s-4.261-1.077-5.584-3.232v2.976h-4.512V0h4.512v8.704zm16.48 2.432c0-1.536.65-2.827 1.952-3.872 1.301-1.045 3.03-1.568 5.184-1.568 2.155 0 3.883.517 5.184 1.552 1.301 1.035 1.995 2.437 2.08 4.208H55.04c-.128-1.493-1.045-2.24-2.752-2.24-.853 0-1.515.17-1.984.512-.47.341-.704.81-.704 1.408 0 .597.352 1.067 1.056 1.408.704.341 1.557.608 2.56.8 1.003.192 2 .432 2.992.72s1.84.8 2.544 1.536 1.056 1.712 1.056 2.928c0 1.6-.677 2.901-2.032 3.904-1.355 1.003-3.083 1.504-5.184 1.504s-3.824-.496-5.168-1.488c-1.344-.992-2.08-2.416-2.208-4.272h4.608c.17 1.493 1.12 2.24 2.848 2.24.832 0 1.504-.187 2.016-.56.512-.373.768-.864.768-1.472s-.352-1.088-1.056-1.44c-.704-.352-1.557-.624-2.56-.816-1.003-.192-2-.427-2.992-.704a5.635 5.635 0 0 1-2.544-1.488c-.704-.715-1.056-1.648-1.056-2.8zm25.28 8.768h2.144v3.776h-2.848c-1.813 0-3.21-.416-4.192-1.248-.981-.832-1.472-2.208-1.472-4.128V9.632h-1.888v-3.68h1.888V1.568h4.512v4.384h3.968v3.68h-3.968v8.672c0 .576.139.987.416 1.232.277.245.757.368 1.44.368zM80.704 5.952v3.136c1.195-2.261 2.923-3.392 5.184-3.392v4.608h-1.12c-1.344 0-2.357.336-3.04 1.008-.683.672-1.024 1.83-1.024 3.472v8.896h-4.512V5.952h4.512zm19.68 12.704c.939-.939 1.408-2.219 1.408-3.84s-.47-2.896-1.408-3.824c-.939-.928-2.037-1.392-3.296-1.392s-2.352.459-3.28 1.376c-.928.917-1.392 2.187-1.392 3.808s.47 2.901 1.408 3.84c.939.939 2.032 1.408 3.28 1.408 1.248 0 2.341-.459 3.28-1.376zm-10.176 2.72c-1.579-1.728-2.368-3.925-2.368-6.592s.79-4.848 2.368-6.544c1.579-1.696 3.584-2.544 6.016-2.544s4.288 1.003 5.568 3.008V5.952h4.48V23.68h-4.48v-2.976c-1.344 2.155-3.21 3.232-5.6 3.232-2.39 0-4.384-.853-5.984-2.56zm22.048.064c-1.621-1.664-2.432-3.872-2.432-6.624s.81-4.96 2.432-6.624c1.621-1.664 3.723-2.496 6.304-2.496 2.155 0 3.957.523 5.408 1.568 1.45 1.045 2.421 2.528 2.912 4.448h-4.864c-.576-1.472-1.728-2.208-3.456-2.208-1.301 0-2.32.475-3.056 1.424-.736.95-1.104 2.245-1.104 3.888 0 1.643.368 2.939 1.104 3.888.736.95 1.755 1.424 3.056 1.424 1.707 0 2.859-.747 3.456-2.24h4.864c-.512 1.856-1.499 3.328-2.96 4.416-1.461 1.088-3.248 1.632-5.36 1.632-2.581 0-4.683-.832-6.304-2.496zm24.896-1.536h2.144v3.776h-2.848c-1.813 0-3.21-.416-4.192-1.248-.981-.832-1.472-2.208-1.472-4.128V9.632h-1.888v-3.68h1.888V1.568h4.512v4.384h3.968v3.68h-3.968v8.672c0 .576.139.987.416 1.232.277.245.757.368 1.44.368z"/>
</svg>
