<svg xmlns="http://www.w3.org/2000/svg" width="139" height="41" viewBox="0 0 139 41">
    <g fill="none" fill-rule="evenodd">
        <path fill="#9B9B9B" d="M85.709 32.095C77.672 37.908 66.019 41 55.985 41c-14.063 0-26.726-5.094-36.31-13.575-.752-.665-.08-1.576.824-1.06 10.339 5.896 23.125 9.447 36.33 9.447 8.909 0 18.702-1.811 27.712-5.558 1.359-.564 2.498.88 1.168 1.84"/>
        <path fill="#929DC5" d="M89.449 28.288c-1.02-1.24-6.747-.587-9.319-.296-.779.088-.9-.556-.197-1.024 4.567-3.045 12.05-2.165 12.921-1.147.876 1.029-.23 8.148-4.51 11.547-.659.523-1.285.244-.993-.446.962-2.283 3.12-7.394 2.098-8.634"/>
        <path fill="#9B9B9B" d="M80.28 4.586V1.464c.002-.474.366-.791.804-.791H95.3c.455 0 .82.325.821.788l-.001 2.677c-.004.45-.388 1.035-1.07 1.966l-7.364 10.348c2.733-.064 5.625.339 8.108 1.713.56.31.71.769.755 1.218v3.331c0 .458-.51.99-1.046.715-4.376-2.257-10.183-2.503-15.021.027-.495.26-1.012-.265-1.012-.724v-3.167c0-.506.01-1.373.528-2.145L88.53 5.373h-7.428c-.454 0-.818-.32-.822-.787M28.472 23.525h-4.26c-.405-.027-.73-.328-.762-.712l.003-21.58c0-.433.368-.778.822-.778l3.967-.001c.415.02.748.331.775.725v2.817h.08C30.13 1.271 32.077 0 34.702 0c2.664 0 4.334 1.271 5.527 3.996C41.264 1.271 43.61 0 46.114 0c1.79 0 3.739.726 4.93 2.361 1.353 1.817 1.075 4.45 1.075 6.767l-.003 13.62c0 .43-.369.777-.822.777h-4.255c-.427-.028-.764-.363-.764-.776l-.001-11.441c0-.908.08-3.18-.12-4.042-.318-1.453-1.272-1.862-2.504-1.862-1.034 0-2.108.682-2.546 1.771-.437 1.09-.397 2.906-.397 4.133v11.44c0 .43-.368.777-.821.777H35.63c-.427-.028-.764-.363-.764-.776l-.004-11.441c0-2.407.397-5.95-2.624-5.95-3.062 0-2.943 3.452-2.943 5.95l-.002 11.44c.001.43-.368.777-.821.777M107.44 4.322c-3.11 0-3.306 4.143-3.306 6.727 0 2.584-.039 8.109 3.267 8.109 3.267 0 3.425-4.455 3.425-7.173 0-1.782-.08-3.922-.63-5.614-.473-1.47-1.418-2.05-2.756-2.05zM107.401 0c6.259 0 9.643 5.257 9.643 11.94 0 6.46-3.738 11.585-9.643 11.585-6.14 0-9.486-5.258-9.486-11.808C97.915 5.123 101.3 0 107.401 0zM125.55 23.525h-4.307c-.433-.028-.777-.363-.777-.776l-.006-21.59c.036-.394.395-.704.83-.704l4.012-.001c.378.018.689.27.768.605v3.3h.082C127.363 1.408 129.058 0 132.045 0c1.937 0 3.835.681 5.046 2.543 1.131 1.726 1.131 4.632 1.131 6.721v13.58c-.049.384-.402.68-.829.68h-4.335c-.401-.025-.723-.312-.77-.68V11.127c0-2.362.282-5.813-2.705-5.813-1.05 0-2.019.681-2.503 1.726-.605 1.317-.687 2.634-.687 4.087v11.621c-.007.43-.38.778-.842.778M73.198 23.18c-.284.243-.692.26-1.013.096-1.424-1.137-1.68-1.662-2.457-2.744-2.354 2.302-4.02 2.993-7.069 2.993-3.61 0-6.417-2.14-6.417-6.416 0-3.342 1.885-5.614 4.572-6.728 2.326-.98 5.575-1.158 8.062-1.426v-.534c0-.98.08-2.139-.522-2.985-.521-.758-1.524-1.07-2.407-1.07-1.634 0-3.088.805-3.445 2.472-.075.37-.356.738-.745.757l-4.155-.432c-.352-.076-.741-.346-.64-.86C57.917 1.463 62.469 0 66.55 0c2.085 0 4.813.535 6.457 2.05 2.086 1.87 1.885 4.366 1.885 7.084v6.413c0 1.928.834 2.775 1.618 3.815.273.374.335.82-.014 1.092-.876.705-2.432 2.003-3.288 2.735l-.01-.01zm-4.322-10.037c0 1.605.04 2.94-.803 4.367-.682 1.159-1.764 1.87-2.967 1.87-1.645 0-2.608-1.203-2.608-2.984 0-3.505 3.275-4.144 6.378-4.144v.891zM17.178 23.18c-.283.243-.693.26-1.012.096-1.425-1.137-1.68-1.662-2.458-2.744-2.354 2.302-4.021 2.993-7.069 2.993-3.61 0-6.417-2.14-6.417-6.416 0-3.342 1.885-5.614 4.572-6.728 2.326-.98 5.575-1.158 8.062-1.426v-.534c0-.98.08-2.139-.521-2.985-.522-.758-1.525-1.07-2.407-1.07-1.635 0-3.09.805-3.446 2.472-.074.37-.356.738-.745.757l-4.155-.432c-.351-.076-.742-.346-.64-.86C1.897 1.463 6.449 0 10.53 0c2.085 0 4.812.535 6.457 2.05 2.085 1.87 1.885 4.366 1.885 7.084v6.413c0 1.928.834 2.775 1.618 3.815.274.374.335.82-.014 1.092-.875.705-2.432 2.003-3.288 2.735l-.01-.01zm-4.322-10.037c0 1.605.04 2.94-.802 4.367-.682 1.159-1.765 1.87-2.969 1.87-1.643 0-2.606-1.203-2.606-2.984 0-3.505 3.275-4.144 6.377-4.144v.891z"/>
    </g>
</svg>
