<svg xmlns="http://www.w3.org/2000/svg" width="133" height="34" viewBox="0 0 133 34">
    <path fill="#9B9B9B" fill-rule="evenodd" d="M17.31 19.104c1.258-1.344 1.887-3.125 1.887-5.344 0-2.219-.629-3.99-1.888-5.312-1.258-1.323-2.901-1.984-4.928-1.984-2.026 0-3.674.667-4.944 2-1.269 1.333-1.904 3.104-1.904 5.312s.635 3.979 1.904 5.312c1.27 1.333 2.918 2 4.944 2 2.027 0 3.67-.661 4.928-1.984zm-4.929 6.112c-3.221 0-5.93-1.077-8.128-3.232-2.197-2.155-3.296-4.89-3.296-8.208 0-3.317 1.104-6.053 3.312-8.208 2.208-2.155 4.918-3.232 8.128-3.232 3.211 0 5.915 1.077 8.112 3.232 2.198 2.155 3.296 4.89 3.296 8.208 0 3.317-1.098 6.053-3.296 8.208-2.197 2.155-4.906 3.232-8.128 3.232zM31.87 7.264V10.4c1.195-2.261 2.923-3.392 5.184-3.392v4.608h-1.12c-1.344 0-2.357.336-3.04 1.008-.682.672-1.024 1.83-1.024 3.472v8.896h-4.512V7.264h4.512zm13.376-4.512c0 .768-.266 1.419-.8 1.952-.533.533-1.178.8-1.936.8a2.637 2.637 0 0 1-1.936-.8c-.533-.533-.8-1.184-.8-1.952s.267-1.419.8-1.952A2.637 2.637 0 0 1 42.51 0c.758 0 1.403.267 1.936.8.534.533.8 1.184.8 1.952zm-4.992 22.24V7.264h4.512v17.728h-4.512zm10.432-2.304c-1.578-1.728-2.368-3.925-2.368-6.592s.79-4.848 2.368-6.544c1.579-1.696 3.584-2.544 6.016-2.544s4.288 1.003 5.568 3.008V7.264h4.48V25.12c0 2.539-.746 4.613-2.24 6.224-1.493 1.61-3.589 2.416-6.288 2.416-2.698 0-4.842-.56-6.432-1.68-1.589-1.12-2.49-2.715-2.704-4.784h4.416c.278.79.811 1.413 1.6 1.872.79.459 1.782.688 2.976.688 1.195 0 2.192-.395 2.992-1.184.8-.79 1.2-1.973 1.2-3.552v-3.104c-1.344 2.155-3.21 3.232-5.6 3.232-2.389 0-4.384-.853-5.984-2.56zm10.176-2.72c.939-.939 1.408-2.219 1.408-3.84s-.469-2.896-1.408-3.824c-.938-.928-2.037-1.392-3.296-1.392-1.258 0-2.352.459-3.28 1.376-.928.917-1.392 2.187-1.392 3.808s.47 2.901 1.408 3.84c.939.939 2.032 1.408 3.28 1.408 1.248 0 2.342-.459 3.28-1.376zm21.984 0c.939-.939 1.408-2.219 1.408-3.84s-.469-2.896-1.408-3.824c-.938-.928-2.037-1.392-3.296-1.392-1.258 0-2.352.459-3.28 1.376-.928.917-1.392 2.187-1.392 3.808s.47 2.901 1.408 3.84c.939.939 2.032 1.408 3.28 1.408 1.248 0 2.342-.459 3.28-1.376zm-10.176 2.72c-1.578-1.728-2.368-3.925-2.368-6.592s.79-4.848 2.368-6.544c1.579-1.696 3.584-2.544 6.016-2.544s4.288 1.003 5.568 3.008V7.264h4.48v17.728h-4.48v-2.976c-1.344 2.155-3.21 3.232-5.6 3.232-2.389 0-4.384-.853-5.984-2.56zM98.045 7.264V9.92c1.131-1.941 2.966-2.912 5.504-2.912 1.344 0 2.544.31 3.6.928 1.056.619 1.872 1.504 2.448 2.656a6.91 6.91 0 0 1 2.544-2.624c1.078-.64 2.288-.96 3.632-.96 2.112 0 3.814.661 5.104 1.984 1.291 1.323 1.936 3.179 1.936 5.568v10.432h-4.48V15.2c0-1.387-.352-2.448-1.056-3.184-.704-.736-1.664-1.104-2.88-1.104s-2.181.368-2.896 1.104c-.714.736-1.072 1.797-1.072 3.184v9.792h-4.48V15.2c0-1.387-.352-2.448-1.056-3.184-.704-.736-1.664-1.104-2.88-1.104s-2.181.368-2.896 1.104c-.714.736-1.072 1.797-1.072 3.184v9.792h-4.512V7.264h4.512zm34.4-4.512c0 .768-.266 1.419-.8 1.952-.533.533-1.178.8-1.936.8a2.637 2.637 0 0 1-1.936-.8c-.533-.533-.8-1.184-.8-1.952s.267-1.419.8-1.952a2.637 2.637 0 0 1 1.936-.8c.758 0 1.403.267 1.936.8.534.533.8 1.184.8 1.952zm-4.992 22.24V7.264h4.512v17.728h-4.512z"/>
</svg>
