<svg xmlns="http://www.w3.org/2000/svg" width="140" height="31" viewBox="0 0 140 31">
    <g fill="#9B9B9B" fill-rule="evenodd">
        <path d="M66.755 24.119c0 .927.77 1.686 1.71 1.686s1.708-.759 1.708-1.686V13.916c0-.927-.769-1.686-1.709-1.686-.94 0-1.709.759-1.709 1.686V24.12zm1.71-15.041c2.943 0 5.35 2.376 5.35 5.28v9.284c0 2.905-2.407 5.281-5.35 5.281-2.943 0-5.351-2.376-5.351-5.28v-9.284c0-2.905 2.408-5.281 5.35-5.281zM54.448 28.923h4.033V18.392l4.796-15.696h-4.033l-2.783 9.863-2.783-9.863h-4.033l4.803 15.72v10.507zm28.912 0h3.577V9.3h-3.577v14.958c-2.574 2.96-3.222.748-3.222-.363V9.299h-3.577V24.59c0 2.497.632 4.088 2.24 4.34 1.072.169 2.62.002 4.56-2.338v2.331zM118.422 24.89V13.17c.469-.525 1.098-.978 1.854-.93 1.731.11 1.558 2.214 1.558 2.214s-.029 7.778-.029 9.272c0 1.495-.606 2.021-1.615 2.049-.863.023-1.578-.68-1.768-.885zm-3.684 4.061h3.684v-2.088c.7.829 1.853 2.334 4.075 2.088 3.72-.411 3.042-5.141 3.042-5.141V13.735c0-3.322-1.224-4.65-3.388-4.65-1.769 0-3.248 1.498-3.73 2.045V2.696h-3.683V28.95zM107.842 28.924h3.506V9.434h-3.506V24.29c-2.523 2.939-3.159.742-3.159-.361V9.435h-3.506V24.62c0 2.48.62 4.06 2.196 4.31 1.05.167 2.567.001 4.469-2.323v2.316M92.655 28.978h4.162V6.447h4.36V2.696H88.294v3.75h4.361v22.532M135.456 17.18v-2.816a1.73 1.73 0 0 0-1.732-1.718 1.73 1.73 0 0 0-1.733 1.718v2.817h3.465zm-1.732-7.745c2.983 0 5.424 2.42 5.424 5.38v5.408h-7.157v4.535c0 .944.78 1.718 1.733 1.718a1.73 1.73 0 0 0 1.732-1.718v-2.226h3.692v1.74c0 2.96-2.44 5.38-5.424 5.38-2.984 0-5.425-2.42-5.425-5.38v-9.457c0-2.96 2.441-5.38 5.425-5.38zM18.69 22.358V9.053L30.322 15.5 18.69 22.358zm27.554-8.49c-.07-5.049-.545-10.123-2.67-11.998-.82-.724-1.6-1.178-4.718-1.46C34.954.057 29.669.008 25.675.002c-1.649-.003-3.298-.003-4.947 0-3.994.006-9.279.055-13.18.408-3.119.282-3.898.736-4.719 1.46C.667 3.777.213 8.995.156 14.129c-.01.957-.01 1.915.001 2.872C.221 22.093.685 27.24 2.83 29.13c.82.724 1.6 1.178 4.718 1.46 3.902.352 9.187.402 13.181.408 1.649.003 3.298.003 4.947 0 3.994-.006 9.279-.056 13.18-.409 3.119-.281 3.898-.735 4.719-1.459 2.125-1.875 2.6-6.949 2.67-11.998.015-1.087.015-2.177 0-3.264z"/>
    </g>
</svg>
