<svg xmlns="http://www.w3.org/2000/svg" width="76" height="76" viewBox="0 0 76 76">
    <g fill="none" fill-rule="evenodd" stroke="#3CB8FD" stroke-width="2">
        <path d="M13.618 37.99l3.984-3.983 3.985 3.986-3.983 3.983z"/>
        <path d="M9.32 37.99l8.229-8.23 8.233 8.234-8.23 8.228z"/>
        <path d="M5.44 37.988L17.6 25.83l12.165 12.165-12.16 12.16z"/>
        <path d="M1.352 37.987l16.195-16.194L33.75 37.996 17.555 54.19zM33.84 17.71l3.982-3.984 3.986 3.985-3.983 3.983z"/>
        <path d="M29.645 17.707l8.229-8.228 8.233 8.233-8.229 8.228z"/>
        <path d="M25.662 17.707L37.82 5.547l12.165 12.166-12.16 12.16z"/>
        <path d="M21.678 17.706L37.872 1.511l16.204 16.203L37.88 33.91zM33.859 58.223l3.983-3.984 3.985 3.986-3.983 3.983z"/>
        <path d="M29.56 58.222l8.228-8.228 8.233 8.233-8.228 8.228z"/>
        <path d="M25.68 58.221l12.16-12.16 12.165 12.166-12.16 12.16z"/>
        <path d="M21.591 58.22l16.195-16.195L53.99 58.23 37.795 74.424zM54.08 37.942l3.982-3.983 3.986 3.985-3.984 3.983z"/>
        <path d="M49.885 37.94l8.229-8.229 8.233 8.233-8.229 8.229z"/>
        <path d="M45.901 37.94l12.16-12.16 12.165 12.165-12.16 12.16z"/>
        <path d="M41.917 37.939l16.195-16.195 16.204 16.203L58.12 54.142zM30.797 35.038l7.56 7.565M36.578 47.274l10.229-10.233M28.944 38.82l9.561-9.566M25.312 38.524L38.209 25.62M20.864 38.672L38.283 21.32M31.538 40.23l7.708-7.713M36.578 32.665l6.597 6.526M29.018 37.263l9.71 9.715M24.645 36.818l13.86 13.868M36.43 43.418l6.152-6.155M37.097 50.686l13.638-13.571M36.875 28.883L46.88 38.895M37.468 25.546l12.378 12.385M37.171 21.023l16.9 16.908M20.864 37.337l16.974 16.908M36.43 55.58l18.753-18.688"/>
    </g>
</svg>
